# xmcd CD database file
#
# Track frame offsets:
#	150
#	19157
#	43832
#	55280
#	76270
#	92210
#	108767
#	132990
#	151305
#	167275
#	184292
#	204742
#	229585
#
# Disc length: 3282 seconds
#
# Revision: 0
# Processed by: cddbd v1.4PL0 Copyright (c) Steve Scherf et al.
# Submitted via: CDex 1.50
#
DISCID=a30cd00d
DTITLE=Big Lucky Carter - Lucky 13
DYEAR=1998
DGENRE=Blues
TTITLE0=Goofer Dust
TTITLE1=Miss Lula Mae's Mule
TTITLE2=I Got A Woman On The Mountain Top
TTITLE3=Grazing In Your Pasture
TTITLE4=We Should Be More Cohesive
TTITLE5=Monkey Tongue
TTITLE6=AIDS Is Killing Me
TTITLE7=Let Me Die In Love With You
TTITLE8=Sugar Talk
TTITLE9=Ugly Child
TTITLE10=Papa Is A Junkie
TTITLE11=Down At Sam's Place
TTITLE12=Pleasure For Your Treasure
EXTD=YEAR: 1998
EXTT0=
EXTT1=
EXTT2=
EXTT3=
EXTT4=
EXTT5=
EXTT6=
EXTT7=
EXTT8=
EXTT9=
EXTT10=
EXTT11=
EXTT12=
PLAYORDER=
